<?xml version="1.0" encoding="UTF-8" standalone="no"?>
<!-- Created with Inkscape (http://www.inkscape.org/) -->

<svg
   xmlns:dc="http://purl.org/dc/elements/1.1/"
   xmlns:cc="http://creativecommons.org/ns#"
   xmlns:rdf="http://www.w3.org/1999/02/22-rdf-syntax-ns#"
   xmlns:svg="http://www.w3.org/2000/svg"
   xmlns="http://www.w3.org/2000/svg"
   xmlns:sodipodi="http://sodipodi.sourceforge.net/DTD/sodipodi-0.dtd"
   xmlns:inkscape="http://www.inkscape.org/namespaces/inkscape"
   version="1.1"
   id="svg534"
   xml:space="preserve"
   width="743.02362"
   height="702.8103"
   viewBox="0 0 743.02362 702.8103"
   sodipodi:docname="hubbard_system.svg"
   inkscape:version="0.92.2 (30a58d1, 2017-08-07)"><metadata
     id="metadata540"><rdf:RDF><cc:Work
         rdf:about=""><dc:format>image/svg+xml</dc:format><dc:type
           rdf:resource="http://purl.org/dc/dcmitype/StillImage" /><dc:title></dc:title></cc:Work></rdf:RDF></metadata><defs
     id="defs538" /><sodipodi:namedview
     pagecolor="#ffffff"
     bordercolor="#666666"
     borderopacity="1"
     objecttolerance="10"
     gridtolerance="10"
     guidetolerance="10"
     inkscape:pageopacity="0"
     inkscape:pageshadow="2"
     inkscape:window-width="1366"
     inkscape:window-height="719"
     id="namedview536"
     showgrid="true"
     inkscape:zoom="0.74110948"
     inkscape:cx="371.51181"
     inkscape:cy="12.442673"
     inkscape:window-x="0"
     inkscape:window-y="25"
     inkscape:window-maximized="1"
     inkscape:current-layer="g542"><inkscape:grid
       type="xygrid"
       id="grid4410" /></sodipodi:namedview><g
     id="g542"
     inkscape:groupmode="layer"
     inkscape:label="hubbard_system"
     transform="matrix(1.3333333,0,0,-1.3333333,0,702.8103)"><g
       transform="matrix(1,0,0,-1,0,527.10773)"
       id="g546"><path
         inkscape:connector-curvature="0"
         id="path548"
         style="fill:#ffffff;fill-opacity:1;fill-rule:nonzero;stroke:#000000;stroke-width:2.26771688;stroke-linecap:butt;stroke-linejoin:miter;stroke-miterlimit:4;stroke-dasharray:none;stroke-opacity:1"
         d="m 47.207,23.633 c 0,12.426 -10.074,22.5 -22.5,22.5 -12.43,0 -22.5,-10.074 -22.5,-22.5 0,-12.426 10.07,-22.5 22.5,-22.5 12.426,0 22.5,10.074 22.5,22.5 z" /></g><g
       transform="matrix(1,0,0,-1,0,527.10773)"
       id="g550"><path
         inkscape:connector-curvature="0"
         id="path552"
         style="fill:#ffffff;fill-opacity:1;fill-rule:nonzero;stroke:#000000;stroke-width:2.26771688;stroke-linecap:butt;stroke-linejoin:miter;stroke-miterlimit:4;stroke-dasharray:none;stroke-opacity:1"
         d="m 556.133,24.707 c 0,12.426 -10.074,22.5 -22.5,22.5 -12.426,0 -22.5,-10.074 -22.5,-22.5 0,-12.43 10.074,-22.5 22.5,-22.5 12.426,0 22.5,10.07 22.5,22.5 z" /></g><g
       transform="matrix(1,0,0,-1,0,527.10773)"
       id="g554"><path
         inkscape:connector-curvature="0"
         id="path556"
         style="fill:#ffffff;fill-opacity:1;fill-rule:nonzero;stroke:#000000;stroke-width:2.26771688;stroke-linecap:butt;stroke-linejoin:miter;stroke-miterlimit:4;stroke-dasharray:none;stroke-opacity:1"
         d="m 554.598,503.473 c 0,12.425 -10.075,22.5 -22.5,22.5 -12.43,0 -22.5,-10.075 -22.5,-22.5 0,-12.426 10.07,-22.5 22.5,-22.5 12.425,0 22.5,10.074 22.5,22.5 z" /></g><g
       transform="matrix(1,0,0,-1,0,527.10773)"
       id="g558"><path
         inkscape:connector-curvature="0"
         id="path560"
         style="fill:#ffffff;fill-opacity:1;fill-rule:nonzero;stroke:#000000;stroke-width:2.26771688;stroke-linecap:butt;stroke-linejoin:miter;stroke-miterlimit:4;stroke-dasharray:none;stroke-opacity:1"
         d="m 46.133,502.562 c 0,12.426 -10.074,22.5 -22.5,22.5 -12.426,0 -22.5,-10.074 -22.5,-22.5 0,-12.425 10.074,-22.5 22.5,-22.5 12.426,0 22.5,10.075 22.5,22.5 z" /></g><g
       transform="matrix(1,0,0,-1,0,527.10773)"
       id="g562"><path
         inkscape:connector-curvature="0"
         id="path564"
         style="fill:none;stroke:#000000;stroke-width:2.83464599;stroke-linecap:butt;stroke-linejoin:miter;stroke-miterlimit:4;stroke-dasharray:none;stroke-opacity:1"
         d="m 120.062,151.133 c 60,0 60,0 60,0 z" /></g><g
       transform="matrix(1,0,0,-1,0,527.10773)"
       id="g566"><path
         inkscape:connector-curvature="0"
         id="path568"
         style="fill:none;stroke:#000000;stroke-width:2.83464599;stroke-linecap:butt;stroke-linejoin:miter;stroke-miterlimit:4;stroke-dasharray:none;stroke-opacity:1"
         d="m 375.062,151.133 c 60,0 60,0 60,0 z" /></g><g
       transform="matrix(1,0,0,-1,0,527.10773)"
       id="g570"><path
         inkscape:connector-curvature="0"
         id="path572"
         style="fill:none;stroke:#000000;stroke-width:2.83464599;stroke-linecap:butt;stroke-linejoin:miter;stroke-miterlimit:4;stroke-dasharray:none;stroke-opacity:1"
         d="m 375.062,406.133 c 60,0 60,0 60,0 z" /></g><g
       transform="matrix(1,0,0,-1,0,527.10773)"
       id="g574"><path
         inkscape:connector-curvature="0"
         id="path576"
         style="fill:none;stroke:#000000;stroke-width:2.83464599;stroke-linecap:butt;stroke-linejoin:miter;stroke-miterlimit:4;stroke-dasharray:none;stroke-opacity:1"
         d="m 120.062,406.133 c 60,0 60,0 60,0 z" /></g><g
       transform="matrix(1,0,0,-1,0,527.10773)"
       id="g578"><path
         inkscape:connector-curvature="0"
         id="path580"
         style="fill:none;stroke:#000000;stroke-width:2.83464599;stroke-linecap:butt;stroke-linejoin:miter;stroke-miterlimit:4;stroke-dasharray:none;stroke-opacity:1"
         d="m 45.062,91.133 c 60,0 60,0 60,0 z" /></g><g
       transform="matrix(1,0,0,-1,0,527.10773)"
       id="g582"><path
         inkscape:connector-curvature="0"
         id="path584"
         style="fill:none;stroke:#000000;stroke-width:2.83464599;stroke-linecap:butt;stroke-linejoin:miter;stroke-miterlimit:4;stroke-dasharray:none;stroke-opacity:1"
         d="m 450.062,91.133 c 60,0 60,0 60,0 z" /></g><g
       transform="matrix(1,0,0,-1,0,527.10773)"
       id="g586"><path
         inkscape:connector-curvature="0"
         id="path588"
         style="fill:none;stroke:#000000;stroke-width:2.83464599;stroke-linecap:butt;stroke-linejoin:miter;stroke-miterlimit:4;stroke-dasharray:none;stroke-opacity:1"
         d="m 45.062,466.133 c 60,0 60,0 60,0 z" /></g><g
       transform="matrix(1,0,0,-1,0,527.10773)"
       id="g590"><path
         inkscape:connector-curvature="0"
         id="path592"
         style="fill:none;stroke:#000000;stroke-width:2.83464599;stroke-linecap:butt;stroke-linejoin:miter;stroke-miterlimit:4;stroke-dasharray:none;stroke-opacity:1"
         d="m 450.062,466.133 c 60,0 60,0 60,0 z" /></g><g
       transform="matrix(1,0,0,-1,0,527.10773)"
       id="g594"><path
         inkscape:connector-curvature="0"
         id="path596"
         style="fill:none;stroke:#0000ff;stroke-width:2.83464599;stroke-linecap:butt;stroke-linejoin:miter;stroke-miterlimit:4;stroke-dasharray:8.503937, 2.834646;stroke-dashoffset:0;stroke-opacity:1"
         d="m 539.566,421.762 c 0,49.707 -40.296,90 -90,90 -49.707,0 -90,-40.293 -90,-90 0,-49.707 40.293,-90 90,-90 49.704,0 90,40.293 90,90 z" /></g><g
       transform="matrix(1,0,0,-1,0,527.10773)"
       id="g598"><path
         inkscape:connector-curvature="0"
         id="path600"
         style="fill:none;stroke:#0000ff;stroke-width:2.83464599;stroke-linecap:butt;stroke-linejoin:miter;stroke-miterlimit:4;stroke-dasharray:8.503937, 2.834646;stroke-dashoffset:0;stroke-opacity:1"
         d="m 196.133,420.062 c 0,49.708 -40.293,90 -90,90 -49.703,0 -90,-40.292 -90,-90 0,-49.707 40.297,-90 90,-90 49.707,0 90,40.293 90,90 z" /></g><g
       transform="matrix(1,0,0,-1,0,527.10773)"
       id="g602"><path
         inkscape:connector-curvature="0"
         id="path604"
         style="fill:none;stroke:#0000ff;stroke-width:2.83464599;stroke-linecap:butt;stroke-linejoin:miter;stroke-miterlimit:4;stroke-dasharray:8.503937, 2.834646;stroke-dashoffset:0;stroke-opacity:1"
         d="m 540.062,106.133 c 0,49.707 -40.292,90 -90,90 -49.707,0 -90,-40.293 -90,-90 0,-49.703 40.293,-90 90,-90 49.708,0 90,40.297 90,90 z" /></g><g
       transform="matrix(1,0,0,-1,0,527.10773)"
       id="g606"><path
         inkscape:connector-curvature="0"
         id="path608"
         style="fill:none;stroke:#0000ff;stroke-width:2.83464599;stroke-linecap:butt;stroke-linejoin:miter;stroke-miterlimit:4;stroke-dasharray:8.503937, 2.834646;stroke-dashoffset:0;stroke-opacity:1"
         d="m 196.133,107.207 c 0,49.703 -40.293,90 -90,90 -49.703,0 -90,-40.297 -90,-90 0,-49.707 40.297,-90 90,-90 49.707,0 90,40.293 90,90 z" /></g><text
       id="text614"
       style="font-variant:normal;font-size:28.00000191px;font-family:'Century Schoolbook L';-inkscape-font-specification:CenturySchL-Roma;writing-mode:lr-tb;fill:#000000;fill-opacity:1;fill-rule:nonzero;stroke:none"
       transform="scale(1,-1)"
       x="524.18396"
       y="-14.980418"><tspan
         id="tspan610"
         y="-14.980418"
         x="524.18396">2</tspan><tspan
         id="tspan612"
         y="-492.9787"
         x="526.1051">3</tspan></text>
<g
       transform="matrix(1,0,0,-1,0,527.10773)"
       id="g616"><path
         inkscape:connector-curvature="0"
         id="path618"
         style="fill:none;stroke:#000000;stroke-width:3.40157509;stroke-linecap:butt;stroke-linejoin:miter;stroke-miterlimit:4;stroke-dasharray:none;stroke-opacity:1"
         d="m 151.27,376.984 c 0,-210.851 0,-210.851 0,-210.851 z" /></g><g
       transform="matrix(1,0,0,-1,0,527.10773)"
       id="g620"><path
         inkscape:connector-curvature="0"
         id="path622"
         style="fill:#000000;fill-opacity:1;fill-rule:evenodd;stroke:#000000;stroke-width:3.40157509;stroke-linecap:butt;stroke-linejoin:miter;stroke-miterlimit:4;stroke-dasharray:none;stroke-opacity:1"
         d="m 151.453,376.133 c -11.25,-30 0,0 -11.25,-30 11.25,15 11.25,15 22.5,0 z" /></g><g
       transform="matrix(1,0,0,-1,0,527.10773)"
       id="g624"><path
         inkscape:connector-curvature="0"
         id="path626"
         style="fill:#000000;fill-opacity:1;fill-rule:evenodd;stroke:#000000;stroke-width:3.40157509;stroke-linecap:butt;stroke-linejoin:miter;stroke-miterlimit:4;stroke-dasharray:none;stroke-opacity:1"
         d="m 461.598,69.816 c -30,11.25 0,0 -30,11.25 15,-11.25 15,-11.25 0,-22.5 z" /></g><g
       transform="matrix(1,0,0,-1,0,527.10773)"
       id="g628"><path
         inkscape:connector-curvature="0"
         id="path630"
         style="fill:none;stroke:#000000;stroke-width:3.40157509;stroke-linecap:butt;stroke-linejoin:miter;stroke-miterlimit:4;stroke-dasharray:none;stroke-opacity:1"
         d="m 405.348,168.082 c 0,179.512 0,179.512 0,179.512 z" /></g><g
       transform="matrix(1,0,0,-1,0,527.10773)"
       id="g632"><path
         inkscape:connector-curvature="0"
         id="path634"
         style="fill:#000000;fill-opacity:1;fill-rule:evenodd;stroke:#000000;stroke-width:3.40157509;stroke-linecap:butt;stroke-linejoin:miter;stroke-miterlimit:4;stroke-dasharray:none;stroke-opacity:1"
         d="m 405.348,168.934 c 11.25,30 0,0 11.25,30 -11.25,-15 -11.25,-15 -22.5,0 z" /></g><g
       transform="matrix(1,0,0,-1,0,527.10773)"
       id="g636"><path
         inkscape:connector-curvature="0"
         id="path638"
         style="fill:none;stroke:#000000;stroke-width:3.40157509;stroke-linecap:butt;stroke-linejoin:miter;stroke-miterlimit:4;stroke-dasharray:none;stroke-opacity:1"
         d="m 462.125,69.777 c -369.723,0 -369.723,0 -369.723,0 z" /></g><g
       transform="matrix(1,0,0,-1,0,527.10773)"
       id="g640"><path
         inkscape:connector-curvature="0"
         id="path642"
         style="fill:none;stroke:#000000;stroke-width:3.40157509;stroke-linecap:butt;stroke-linejoin:miter;stroke-miterlimit:4;stroke-dasharray:none;stroke-opacity:1"
         d="m 384.039,128.762 c -212.883,0 -212.883,0 -212.883,0 z" /></g><g
       transform="matrix(1,0,0,-1,0,527.10773)"
       id="g644"><path
         inkscape:connector-curvature="0"
         id="path646"
         style="fill:#000000;fill-opacity:1;fill-rule:evenodd;stroke:#000000;stroke-width:3.40157509;stroke-linecap:butt;stroke-linejoin:miter;stroke-miterlimit:4;stroke-dasharray:none;stroke-opacity:1"
         d="m 383.191,128.762 c -30,11.25 0,0 -30,11.25 15,-11.25 15,-11.25 0,-22.5 z" /></g><g
       transform="matrix(-1,0,0,1,0,527.10773)"
       id="g648"><path
         inkscape:connector-curvature="0"
         id="path650"
         style="fill:none;stroke:#000000;stroke-width:3.40157509;stroke-linecap:butt;stroke-linejoin:miter;stroke-miterlimit:4;stroke-dasharray:none;stroke-opacity:1"
         d="m -170.547,-383.113 c -212.883,0 -212.883,0 -212.883,0 z" /></g><g
       transform="matrix(-1,0,0,1,0,527.10773)"
       id="g652"><path
         inkscape:connector-curvature="0"
         id="path654"
         style="fill:#000000;fill-opacity:1;fill-rule:evenodd;stroke:#000000;stroke-width:3.40157509;stroke-linecap:butt;stroke-linejoin:miter;stroke-miterlimit:4;stroke-dasharray:none;stroke-opacity:1"
         d="m -171.395,-383.113 c -30,11.25 0,0 -30,11.25 15,-11.25 15,-11.25 0,-22.5 z" /></g><g
       id="g4503"
       transform="rotate(-180,278.4475,82.36173)"><g
         id="g656"
         transform="matrix(-1,0,0,1,0,527.10773)"><path
           d="m -94.113,-444.746 c -30,11.25 0,0 -30,11.25 15,-11.25 15,-11.25 0,-22.5 z"
           style="fill:#000000;fill-opacity:1;fill-rule:evenodd;stroke:#000000;stroke-width:3.40157509;stroke-linecap:butt;stroke-linejoin:miter;stroke-miterlimit:4;stroke-dasharray:none;stroke-opacity:1"
           id="path658"
           inkscape:connector-curvature="0" /></g><g
         id="g660"
         transform="matrix(-1,0,0,1,0,527.10773)"><path
           d="m -93.586,-444.785 c -369.723,0 -369.723,0 -369.723,0 z"
           style="fill:none;stroke:#000000;stroke-width:3.40157509;stroke-linecap:butt;stroke-linejoin:miter;stroke-miterlimit:4;stroke-dasharray:none;stroke-opacity:1"
           id="path662"
           inkscape:connector-curvature="0" /></g></g><g
       transform="matrix(1,0,0,-1,0,527.10773)"
       id="g664"><path
         inkscape:connector-curvature="0"
         id="path666"
         style="fill:none;stroke:#ff0000;stroke-width:4.25196886;stroke-linecap:butt;stroke-linejoin:miter;stroke-miterlimit:4;stroke-dasharray:none;stroke-opacity:1"
         d="m 75.062,85.16 c 0,-42.777 0,-42.777 0,-42.777 z" /></g><g
       transform="matrix(1,0,0,-1,0,527.10773)"
       id="g668"><path
         inkscape:connector-curvature="0"
         id="path670"
         style="fill:#ff0000;fill-opacity:1;fill-rule:evenodd;stroke:#ff0000;stroke-width:4.25196886;stroke-linecap:butt;stroke-linejoin:miter;stroke-miterlimit:4;stroke-dasharray:none;stroke-opacity:1"
         d="m 75.062,38.633 7.5,15 c -7.5,-11.25 -7.5,-11.25 -15,0 z" /></g><g
       transform="matrix(-1,0,0,1,0,527.10773)"
       id="g672"><path
         inkscape:connector-curvature="0"
         id="path674"
         style="fill:none;stroke:#ff0000;stroke-width:4.25196886;stroke-linecap:butt;stroke-linejoin:miter;stroke-miterlimit:4;stroke-dasharray:none;stroke-opacity:1"
         d="m -150.062,-95.535 c 0,-42.777 0,-42.777 0,-42.777 z" /></g><g
       transform="matrix(-1,0,0,1,0,527.10773)"
       id="g676"><path
         inkscape:connector-curvature="0"
         id="path678"
         style="fill:#ff0000;fill-opacity:1;fill-rule:evenodd;stroke:#ff0000;stroke-width:4.25196886;stroke-linecap:butt;stroke-linejoin:miter;stroke-miterlimit:4;stroke-dasharray:none;stroke-opacity:1"
         d="m -150.062,-142.062 7.5,15 c -7.5,-11.25 -7.5,-11.25 -15,0 z" /></g><g
       transform="matrix(1,0,0,-1,0,527.10773)"
       id="g680"><path
         inkscape:connector-curvature="0"
         id="path682"
         style="fill:none;stroke:#ff0000;stroke-width:4.25196886;stroke-linecap:butt;stroke-linejoin:miter;stroke-miterlimit:4;stroke-dasharray:none;stroke-opacity:1"
         d="m 75.062,460.16 c 0,-42.777 0,-42.777 0,-42.777 z" /></g><g
       transform="matrix(1,0,0,-1,0,527.10773)"
       id="g684"><path
         inkscape:connector-curvature="0"
         id="path686"
         style="fill:#ff0000;fill-opacity:1;fill-rule:evenodd;stroke:#ff0000;stroke-width:4.25196886;stroke-linecap:butt;stroke-linejoin:miter;stroke-miterlimit:4;stroke-dasharray:none;stroke-opacity:1"
         d="m 75.062,413.633 7.5,15 c -7.5,-11.25 -7.5,-11.25 -15,0 z" /></g><g
       transform="matrix(-1,0,0,1,0,527.10773)"
       id="g688"><path
         inkscape:connector-curvature="0"
         id="path690"
         style="fill:none;stroke:#ff0000;stroke-width:4.25196886;stroke-linecap:butt;stroke-linejoin:miter;stroke-miterlimit:4;stroke-dasharray:none;stroke-opacity:1"
         d="m -405.062,-351.32 c 0,-42.778 0,-42.778 0,-42.778 z" /></g><g
       transform="matrix(-1,0,0,1,0,527.10773)"
       id="g692"><path
         inkscape:connector-curvature="0"
         id="path694"
         style="fill:#ff0000;fill-opacity:1;fill-rule:evenodd;stroke:#ff0000;stroke-width:4.25196886;stroke-linecap:butt;stroke-linejoin:miter;stroke-miterlimit:4;stroke-dasharray:none;stroke-opacity:1"
         d="m -405.062,-397.848 7.5,15 c -7.5,-11.25 -7.5,-11.25 -15,0 z" /></g><text
       id="text708"
       style="font-variant:normal;font-size:28.00000191px;font-family:'Century Schoolbook L';-inkscape-font-specification:'Century Schoolbook L Italic';writing-mode:lr-tb;fill:#000000;fill-opacity:1;fill-rule:nonzero;stroke:none;font-weight:normal;font-style:italic;font-stretch:normal;"
       transform="scale(1,-1)"
       x="270.65836"
       y="-465.50708"><tspan
         id="tspan696"
         y="-465.50708"
         x="270.65836"
         style="-inkscape-font-specification:'Century Schoolbook L Italic';font-family:'Century Schoolbook L';font-weight:normal;font-style:italic;font-stretch:normal;font-variant:normal;">J</tspan><tspan
         id="tspan698"
         y="-371.46536"
         x="269.45126"
         style="-inkscape-font-specification:'Century Schoolbook L Italic';font-family:'Century Schoolbook L';font-weight:normal;font-style:italic;font-stretch:normal;font-variant:normal;">J</tspan><tspan
         id="tspan700"
         y="-251.51971"
         x="378.79056"
         style="-inkscape-font-specification:'Century Schoolbook L Italic';font-family:'Century Schoolbook L';font-weight:normal;font-style:italic;font-stretch:normal;font-variant:normal;">J</tspan><tspan
         id="tspan702"
         y="-251.6284"
         x="159.52844"
         style="-inkscape-font-specification:'Century Schoolbook L Italic';font-family:'Century Schoolbook L';font-weight:normal;font-style:italic;font-stretch:normal;font-variant:normal;">J</tspan><tspan
         id="tspan704"
         y="-151.40242"
         x="271.01025"
         style="-inkscape-font-specification:'Century Schoolbook L Italic';font-family:'Century Schoolbook L';font-weight:normal;font-style:italic;font-stretch:normal;font-variant:normal;">J</tspan><tspan
         id="tspan706"
         y="-55.258251"
         x="268.2843"
         style="-inkscape-font-specification:'Century Schoolbook L Italic';font-family:'Century Schoolbook L';font-weight:normal;font-style:italic;font-stretch:normal;font-variant:normal;">J</tspan></text>
<text
       id="text712"
       style="font-variant:normal;font-size:27.99999619px;font-family:'Century Schoolbook L';-inkscape-font-specification:'Century Schoolbook L Italic';writing-mode:lr-tb;fill:#000000;fill-opacity:1;fill-rule:nonzero;stroke:none;font-weight:normal;font-style:italic;font-stretch:normal;"
       transform="scale(1,-1)"
       x="92.883705"
       y="-407.2977"><tspan
         id="tspan710"
         y="-407.2977"
         x="92.883705"
         style="-inkscape-font-specification:'Century Schoolbook L Italic';font-family:'Century Schoolbook L';font-weight:normal;font-style:italic;font-stretch:normal;font-variant:normal;">U</tspan></text>
<text
       id="text718"
       style="font-variant:normal;font-size:27.99999619px;font-family:'Century Schoolbook L';-inkscape-font-specification:'Century Schoolbook L Medium';writing-mode:lr-tb;fill:#000000;fill-opacity:1;fill-rule:nonzero;stroke:none;font-weight:500;font-style:normal;font-stretch:normal;"
       transform="scale(1,-1)"
       x="15.795567"
       y="-495.0051"><tspan
         id="tspan714"
         y="-495.0051"
         x="15.795567"
         style="-inkscape-font-specification:'Century Schoolbook L Medium';font-family:'Century Schoolbook L';font-weight:500;font-style:normal;font-stretch:normal;font-variant:normal;">4</tspan><tspan
         id="tspan716"
         y="-15.170902"
         x="15.402263"
         style="-inkscape-font-specification:'Century Schoolbook L Medium';font-family:'Century Schoolbook L';font-weight:500;font-style:normal;font-stretch:normal;font-variant:normal;">1</tspan></text>
</g></svg>