<?xml version="1.0" encoding="UTF-8" standalone="no"?>
<!-- Created with Inkscape (http://www.inkscape.org/) -->

<svg
   xmlns:dc="http://purl.org/dc/elements/1.1/"
   xmlns:cc="http://creativecommons.org/ns#"
   xmlns:rdf="http://www.w3.org/1999/02/22-rdf-syntax-ns#"
   xmlns:svg="http://www.w3.org/2000/svg"
   xmlns="http://www.w3.org/2000/svg"
   xmlns:sodipodi="http://sodipodi.sourceforge.net/DTD/sodipodi-0.dtd"
   xmlns:inkscape="http://www.inkscape.org/namespaces/inkscape"
   version="1.1"
   id="svg3718"
   xml:space="preserve"
   width="755.03613"
   height="715.03619"
   viewBox="0 0 755.03613 715.03619"
   sodipodi:docname="ife_mott.svg"
   inkscape:version="0.92.2 (30a58d1, 2017-08-07)"><metadata
     id="metadata3724"><rdf:RDF><cc:Work
         rdf:about=""><dc:format>image/svg+xml</dc:format><dc:type
           rdf:resource="http://purl.org/dc/dcmitype/StillImage" /><dc:title></dc:title></cc:Work></rdf:RDF></metadata><defs
     id="defs3722" /><sodipodi:namedview
     pagecolor="#ffffff"
     bordercolor="#666666"
     borderopacity="1"
     objecttolerance="10"
     gridtolerance="10"
     guidetolerance="10"
     inkscape:pageopacity="0"
     inkscape:pageshadow="2"
     inkscape:window-width="1366"
     inkscape:window-height="719"
     id="namedview3720"
     showgrid="true"
     inkscape:snap-nodes="false"
     inkscape:zoom="0.53895621"
     inkscape:cx="344.21894"
     inkscape:cy="322.91846"
     inkscape:window-x="0"
     inkscape:window-y="25"
     inkscape:window-maximized="1"
     inkscape:current-layer="g3726"
     showguides="false"><inkscape:grid
       type="xygrid"
       id="grid3994" /><sodipodi:guide
       position="680,780"
       orientation="0,1"
       id="guide314"
       inkscape:locked="false" /></sodipodi:namedview><g
     id="g3726"
     inkscape:groupmode="layer"
     inkscape:label="ife_mott_system"
     transform="matrix(1.3333333,0,0,-1.3333333,0,715.03621)"><g
       transform="matrix(1,0,0,-1,0,536.27716)"
       id="g3730"><path
         inkscape:connector-curvature="0"
         id="path3732"
         style="fill:none;stroke:#0000ff;stroke-width:2.55118108;stroke-linecap:butt;stroke-linejoin:miter;stroke-miterlimit:4;stroke-dasharray:7.653543, 2.551181;stroke-dashoffset:0;stroke-opacity:1"
         d="m 544.777,440.914 c 0,41.484 -33.629,75.113 -75.113,75.113 -41.484,0 -75.113,-33.629 -75.113,-75.113 0,-41.484 33.629,-75.113 75.113,-75.113 41.484,0 75.113,33.629 75.113,75.113 z" /></g><g
       transform="matrix(1,0,0,-1,0,536.27716)"
       id="g3734"><path
         inkscape:connector-curvature="0"
         id="path3736"
         style="fill:none;stroke:#0000ff;stroke-width:2.55118108;stroke-linecap:butt;stroke-linejoin:miter;stroke-miterlimit:4;stroke-dasharray:7.653543, 2.551181;stroke-dashoffset:0;stroke-opacity:1"
         d="m 172.113,440.223 c 0,40.929 -33.855,74.109 -75.621,74.109 -41.762,0 -75.621,-33.18 -75.621,-74.109 0,-40.93 33.859,-74.11 75.621,-74.11 41.766,0 75.621,33.18 75.621,74.11 z" /></g><g
       transform="matrix(1,0,0,-1,0,536.27716)"
       id="g3738"><path
         inkscape:connector-curvature="0"
         id="path3740"
         style="fill:none;stroke:#0000ff;stroke-width:2.55118108;stroke-linecap:butt;stroke-linejoin:miter;stroke-miterlimit:4;stroke-dasharray:7.653543, 2.551181;stroke-dashoffset:0;stroke-opacity:1"
         d="m 545.285,94.539 c 0,41.215 -33.183,74.621 -74.117,74.621 -40.934,0 -74.117,-33.406 -74.117,-74.621 0,-41.211 33.183,-74.617 74.117,-74.617 40.934,0 74.117,33.406 74.117,74.617 z" /></g><g
       transform="matrix(1,0,0,-1,0,536.27716)"
       id="g3742"><path
         inkscape:connector-curvature="0"
         id="path3744"
         style="fill:none;stroke:#0000ff;stroke-width:2.55118108;stroke-linecap:butt;stroke-linejoin:miter;stroke-miterlimit:4;stroke-dasharray:7.653543, 2.551181;stroke-dashoffset:0;stroke-opacity:1"
         d="m 170.105,95.109 c 0,40.934 -33.406,74.118 -74.621,74.118 -41.211,0 -74.621,-33.184 -74.621,-74.118 0,-40.933 33.41,-74.117 74.621,-74.117 41.215,0 74.621,33.184 74.621,74.117 z" /></g><g
       id="g326"
       transform="matrix(1.176687,0,0,1.1876501,-91.602299,-8.8809426)"><g
         id="g3746"
         transform="matrix(1,0,0,-1,0,536.27716)"><path
           d="m 564.613,512.547 c 0,12.426 -10.074,22.5 -22.5,22.5 -12.425,0 -22.5,-10.074 -22.5,-22.5 0,-12.43 10.075,-22.5 22.5,-22.5 12.426,0 22.5,10.07 22.5,22.5 z"
           style="fill:#ffffff;fill-opacity:1;fill-rule:nonzero;stroke:#000000;stroke-width:2.26771688;stroke-linecap:butt;stroke-linejoin:miter;stroke-miterlimit:4;stroke-dasharray:none;stroke-opacity:1"
           id="path3748"
           inkscape:connector-curvature="0" /></g><text
         y="-15.077914"
         x="534.20062"
         transform="scale(1,-1)"
         style="font-variant:normal;font-size:28.00000191px;font-family:'Century Schoolbook L';-inkscape-font-specification:CenturySchL-Roma;writing-mode:lr-tb;fill:#000000;fill-opacity:1;fill-rule:nonzero;stroke:none"
         id="text3752"><tspan
           x="534.20062"
           y="-15.077914"
           id="tspan3750">2</tspan></text>
</g><g
       id="g320"
       transform="matrix(1.1459853,0,0,1.135052,-75.774191,-66.027255)"><g
         id="g3754"
         transform="matrix(1,0,0,-1,0,536.27716)"><path
           d="m 565.145,23.695 c 0,12.43 -10.075,22.5 -22.5,22.5 -12.426,0 -22.5,-10.07 -22.5,-22.5 0,-12.425 10.074,-22.5 22.5,-22.5 12.425,0 22.5,10.075 22.5,22.5 z"
           style="fill:#ffffff;fill-opacity:1;fill-rule:nonzero;stroke:#000000;stroke-width:2.26771688;stroke-linecap:butt;stroke-linejoin:miter;stroke-miterlimit:4;stroke-dasharray:none;stroke-opacity:1"
           id="path3756"
           inkscape:connector-curvature="0" /></g><text
         y="-503.1571"
         x="535.11371"
         transform="scale(1,-1)"
         style="font-variant:normal;font-size:28.00000191px;font-family:'Century Schoolbook L';-inkscape-font-specification:CenturySchL-Roma;writing-mode:lr-tb;fill:#000000;fill-opacity:1;fill-rule:nonzero;stroke:none"
         id="text3760"><tspan
           x="535.11371"
           y="-503.1571"
           id="tspan3758">3</tspan></text>
</g><g
       id="g312"
       transform="matrix(1.1246935,0,0,1.1355866,-5.8988647,-66.309703)"><g
         id="g3762"
         transform="matrix(1,0,0,-1,0,536.27716)"><path
           d="m 46.133,23.633 c 0,12.426 -10.074,22.5 -22.5,22.5 -12.426,0 -22.5,-10.074 -22.5,-22.5 0,-12.426 10.074,-22.5 22.5,-22.5 12.426,0 22.5,10.074 22.5,22.5 z"
           style="fill:#ffffff;fill-opacity:1;fill-rule:nonzero;stroke:#000000;stroke-width:2.26771688;stroke-linecap:butt;stroke-linejoin:miter;stroke-miterlimit:4;stroke-dasharray:none;stroke-opacity:1"
           id="path3764"
           inkscape:connector-curvature="0" /></g><text
         y="-504.17538"
         x="14.723273"
         transform="scale(1,-1)"
         style="font-variant:normal;font-size:27.99999809px;font-family:'Century Schoolbook L';-inkscape-font-specification:CenturySchL-Roma;writing-mode:lr-tb;fill:#000000;fill-opacity:1;fill-rule:nonzero;stroke:none"
         id="text3768"><tspan
           x="14.723273"
           y="-504.17538"
           id="tspan3766">4</tspan></text>
</g><g
       id="g332"
       transform="matrix(1.1665398,0,0,1.1665781,-8.1970679,-7.8725797)"><g
         id="g3770"
         transform="matrix(1,0,0,-1,0,536.27716)"><path
           d="m 48.086,512.645 c 0,12.425 -10.074,22.5 -22.5,22.5 -12.426,0 -22.5,-10.075 -22.5,-22.5 0,-12.426 10.074,-22.5 22.5,-22.5 12.426,0 22.5,10.074 22.5,22.5 z"
           style="fill:#ffffff;fill-opacity:1;fill-rule:nonzero;stroke:#000000;stroke-width:2.26771688;stroke-linecap:butt;stroke-linejoin:miter;stroke-miterlimit:4;stroke-dasharray:none;stroke-opacity:1"
           id="path3772"
           inkscape:connector-curvature="0" /></g><text
         y="-14.260271"
         x="17.354227"
         transform="scale(1,-1)"
         style="font-variant:normal;font-size:27.99999809px;font-family:'Century Schoolbook L';-inkscape-font-specification:CenturySchL-Roma;writing-mode:lr-tb;fill:#000000;fill-opacity:1;fill-rule:nonzero;stroke:none"
         id="text3776"><tspan
           x="17.354227"
           y="-14.260271"
           id="tspan3774">1</tspan></text>
</g><g
       transform="matrix(1,0,0,-1,0,536.27716)"
       id="g3778"><path
         inkscape:connector-curvature="0"
         id="path3780"
         style="fill:#ffffff;fill-opacity:1;fill-rule:evenodd;stroke:#000000;stroke-width:2.83464599;stroke-linecap:butt;stroke-linejoin:miter;stroke-miterlimit:4;stroke-dasharray:none;stroke-opacity:1"
         d="m 438.973,267.727 c 0,86.429 -70.516,156.492 -157.5,156.492 -86.989,0 -157.504,-70.063 -157.504,-156.492 0,-86.43 70.515,-156.493 157.504,-156.493 86.984,0 157.5,70.063 157.5,156.493 z" /></g><g
       transform="matrix(1,0,0,-1,0,536.27716)"
       id="g3782"><path
         inkscape:connector-curvature="0"
         id="path3784"
         style="fill:#ffffff;fill-opacity:1;fill-rule:evenodd;stroke:#ffffff;stroke-width:2.83464599;stroke-linecap:butt;stroke-linejoin:miter;stroke-miterlimit:4;stroke-dasharray:none;stroke-opacity:1"
         d="m 393.152,268.539 h 146.172 v 65.527 H 393.152 Z" /></g><g
       transform="matrix(1,0,0,-1,0,536.27716)"
       id="g3786"><path
         inkscape:connector-curvature="0"
         id="path3788"
         style="fill:none;stroke:#000000;stroke-width:1.41732299;stroke-linecap:butt;stroke-linejoin:miter;stroke-miterlimit:4;stroke-dasharray:none;stroke-opacity:1"
         d="m 95.039,95.168 h 375 v 345 h -375 z" /></g><g
       transform="matrix(1,0,0,-1,0,536.27716)"
       id="g3790"><path
         inkscape:connector-curvature="0"
         id="path3792"
         style="fill:none;stroke:#000000;stroke-width:1.70078695;stroke-linecap:butt;stroke-linejoin:miter;stroke-miterlimit:4;stroke-dasharray:none;stroke-opacity:1"
         d="m 87.539,102.668 15,-15 -7.5,7.5 -7.5,-7.5 15,15 -7.5,-7.5 7.5,-7.5 z" /></g><g
       transform="matrix(1,0,0,-1,0,536.27716)"
       id="g3794"><path
         inkscape:connector-curvature="0"
         id="path3796"
         style="fill:none;stroke:#000000;stroke-width:1.70078695;stroke-linecap:butt;stroke-linejoin:miter;stroke-miterlimit:4;stroke-dasharray:none;stroke-opacity:1"
         d="m 462.539,102.668 15,-15 -7.5,7.5 -7.5,-7.5 15,15 -7.5,-7.5 7.5,-7.5 z" /></g><g
       transform="matrix(1,0,0,-1,0,536.27716)"
       id="g3798"><path
         inkscape:connector-curvature="0"
         id="path3800"
         style="fill:none;stroke:#000000;stroke-width:1.70078695;stroke-linecap:butt;stroke-linejoin:miter;stroke-miterlimit:4;stroke-dasharray:none;stroke-opacity:1"
         d="m 462.539,447.668 15,-15 -7.5,7.5 -7.5,-7.5 15,15 -7.5,-7.5 7.5,-7.5 z" /></g><g
       transform="matrix(1,0,0,-1,0,536.27716)"
       id="g3802"><path
         inkscape:connector-curvature="0"
         id="path3804"
         style="fill:none;stroke:#000000;stroke-width:1.70078695;stroke-linecap:butt;stroke-linejoin:miter;stroke-miterlimit:4;stroke-dasharray:none;stroke-opacity:1"
         d="m 87.539,447.668 15,-15 -7.5,7.5 -7.5,-7.5 15,15 -7.5,-7.5 7.5,-7.5 z" /></g><text
       id="text3808"
       style="font-variant:normal;font-size:28.00000191px;font-family:'Century Schoolbook L';-inkscape-font-specification:CenturySchL-Roma;writing-mode:lr-tb;fill:#000000;fill-opacity:1;fill-rule:nonzero;stroke:none"
       transform="scale(1,-1)"
       x="474.95865"
       y="-260.22421"><tspan
         id="tspan3806"
         y="-260.22421"
         x="474.95865" /></text>
<text
       id="text3812"
       style="font-style:italic;font-variant:normal;font-weight:normal;font-stretch:normal;font-size:36.0000009px;font-family:'Century Schoolbook L';-inkscape-font-specification:'Century Schoolbook L Italic';writing-mode:lr-tb;fill:#000000;fill-opacity:1;fill-rule:nonzero;stroke:none;"
       transform="scale(1,-1)"
       x="480.78558"
       y="-262.31158"><tspan
         id="tspan3810"
         y="-262.31158"
         x="480.78558"
         style="font-style:italic;font-variant:normal;font-weight:normal;font-stretch:normal;font-family:'Century Schoolbook L';-inkscape-font-specification:'Century Schoolbook L Italic';font-size:36.0000009px;">a</tspan></text>
<text
       id="text3816"
       style="font-variant:normal;font-size:28.00000191px;font-family:'Century Schoolbook L';-inkscape-font-specification:CenturySchL-Roma;writing-mode:lr-tb;fill:#000000;fill-opacity:1;fill-rule:nonzero;stroke:none"
       transform="scale(1,-1)"
       x="272.01529"
       y="-447.28082"><tspan
         id="tspan3814"
         y="-447.28082"
         x="272.01529" /></text>
<text
       id="text3820"
       style="font-variant:normal;font-size:36.0000009px;font-family:'Century Schoolbook L';-inkscape-font-specification:'Century Schoolbook L Italic';writing-mode:lr-tb;fill:#000000;fill-opacity:1;fill-rule:nonzero;stroke:none;font-weight:normal;font-style:italic;font-stretch:normal;"
       transform="scale(1,-1)"
       x="280.64587"
       y="-449.36819"><tspan
         id="tspan3818"
         y="-449.36819"
         x="280.64587"
         style="-inkscape-font-specification:'Century Schoolbook L Italic';font-family:'Century Schoolbook L';font-weight:normal;font-style:italic;font-stretch:normal;font-variant:normal;font-size:36.0000009px;">a</tspan></text>
<text
       id="text3824"
       style="font-variant:normal;font-size:28.00000191px;font-family:'Century Schoolbook L';-inkscape-font-specification:CenturySchL-Roma;writing-mode:lr-tb;fill:#000000;fill-opacity:1;fill-rule:nonzero;stroke:none"
       transform="scale(1,-1)"
       x="58.748402"
       y="-259.33746"><tspan
         id="tspan3822"
         y="-259.33746"
         x="58.748402" /></text>
<text
       id="text3828"
       style="font-style:italic;font-variant:normal;font-weight:normal;font-stretch:normal;font-size:36.0000009px;font-family:'Century Schoolbook L';-inkscape-font-specification:'Century Schoolbook L Italic';writing-mode:lr-tb;fill:#000000;fill-opacity:1;fill-rule:nonzero;stroke:none;"
       transform="scale(1,-1)"
       x="69.445877"
       y="-262.81644"><tspan
         id="tspan3826"
         y="-262.81644"
         x="69.445877"
         style="font-style:italic;font-variant:normal;font-weight:normal;font-stretch:normal;font-family:'Century Schoolbook L';-inkscape-font-specification:'Century Schoolbook L Italic';font-size:36.0000009px;">a</tspan></text>
<text
       id="text3832"
       style="font-variant:normal;font-size:28.00000191px;font-family:'Century Schoolbook L';-inkscape-font-specification:CenturySchL-Roma;writing-mode:lr-tb;fill:#000000;fill-opacity:1;fill-rule:nonzero;stroke:none"
       transform="scale(1,-1)"
       x="271.00717"
       y="-70.264641"><tspan
         id="tspan3830"
         y="-70.264641"
         x="271.00717" /></text>
<text
       id="text3836"
       style="font-style:italic;font-variant:normal;font-weight:normal;font-stretch:normal;font-size:36.0000009px;font-family:'Century Schoolbook L';-inkscape-font-specification:'Century Schoolbook L Italic';writing-mode:lr-tb;fill:#000000;fill-opacity:1;fill-rule:nonzero;stroke:none;"
       transform="scale(1,-1)"
       x="276.83411"
       y="-72.352013"><tspan
         id="tspan3834"
         y="-72.352013"
         x="276.83411"
         style="font-style:italic;font-variant:normal;font-weight:normal;font-stretch:normal;font-family:'Century Schoolbook L';-inkscape-font-specification:'Century Schoolbook L Italic';font-size:36.0000009px;">a</tspan></text>
<g
       transform="matrix(1,0,0,-1,0,536.27716)"
       id="g3838"><path
         inkscape:connector-curvature="0"
         id="path3840"
         style="fill:#ffffff;fill-opacity:1;fill-rule:nonzero;stroke:#666666;stroke-width:1.70078695;stroke-linecap:butt;stroke-linejoin:miter;stroke-miterlimit:4;stroke-dasharray:none;stroke-opacity:1"
         d="m 237.539,312.668 c 45,-45 45,-45 45,-45 v -60 60 h 60 -60 v -60 60 z" /></g><text
       id="text3844"
       style="font-variant:normal;font-size:36.0000009px;font-family:'Century Schoolbook L';-inkscape-font-specification:'Century Schoolbook L Italic';writing-mode:lr-tb;fill:#000000;fill-opacity:1;fill-rule:nonzero;stroke:none;font-weight:normal;font-style:italic;font-stretch:normal;"
       transform="scale(1,-1)"
       x="270.63504"
       y="-205.34872"><tspan
         id="tspan3842"
         y="-205.34872"
         x="270.63504"
         style="-inkscape-font-specification:'Century Schoolbook L Italic';font-family:'Century Schoolbook L';font-weight:normal;font-style:italic;font-stretch:normal;font-variant:normal;font-size:36.0000009px;">A</tspan></text>
<text
       id="text3848"
       style="font-variant:normal;font-size:22px;font-family:'Century Schoolbook L';-inkscape-font-specification:CenturySchL-Roma;writing-mode:lr-tb;fill:#000000;fill-opacity:1;fill-rule:nonzero;stroke:none"
       transform="scale(1,-1)"
       x="292.19153"
       y="-197.34171"><tspan
         id="tspan3846"
         y="-197.34171"
         x="292.19153"
         style="font-size:22px">0</tspan></text>
<g
       transform="matrix(0,-1,-1,0,0,536.27716)"
       id="g3850"><path
         inkscape:connector-curvature="0"
         id="path3852"
         style="fill:#4d4d4d;fill-opacity:1;fill-rule:nonzero;stroke:#000000;stroke-width:3.40157509;stroke-linecap:butt;stroke-linejoin:miter;stroke-miterlimit:4;stroke-dasharray:none;stroke-opacity:1"
         d="m 207.668,-237.539 112.5,-112.5 z" /></g><g
       transform="matrix(0,-1,-1,0,0,536.27716)"
       id="g3854"><path
         inkscape:connector-curvature="0"
         id="path3856"
         style="fill:#4d4d4d;fill-opacity:1;fill-rule:nonzero;stroke:#000000;stroke-width:3.40157509;stroke-linecap:butt;stroke-linejoin:miter;stroke-miterlimit:4;stroke-dasharray:none;stroke-opacity:1"
         d="m 222.668,-222.539 112.5,-112.5 z" /></g><g
       transform="matrix(0,-1,-1,0,0,536.27716)"
       id="g3858"><path
         inkscape:connector-curvature="0"
         id="path3860"
         style="fill:#4d4d4d;fill-opacity:1;fill-rule:nonzero;stroke:#000000;stroke-width:3.40157509;stroke-linecap:butt;stroke-linejoin:miter;stroke-miterlimit:4;stroke-dasharray:none;stroke-opacity:1"
         d="m 297.668,-357.539 h 45 v 45 -45 z" /></g><g
       transform="matrix(1,0,0,-1,0,536.27716)"
       id="g3862"><path
         inkscape:connector-curvature="0"
         id="path3864"
         style="fill:#4d4d4d;fill-opacity:1;fill-rule:nonzero;stroke:#4d4d4d;stroke-width:1.70078695;stroke-linecap:butt;stroke-linejoin:miter;stroke-miterlimit:4;stroke-dasharray:none;stroke-opacity:1"
         d="m 282.539,200.168 3.75,11.25 c -3.898,-7.16 -5.445,-2.285 -7.5,0 z" /></g><g
       transform="matrix(1,0,0,-1,0,536.27716)"
       id="g3866"><path
         inkscape:connector-curvature="0"
         id="path3868"
         style="fill:#4d4d4d;fill-opacity:1;fill-rule:nonzero;stroke:#4d4d4d;stroke-width:1.70078695;stroke-linecap:butt;stroke-linejoin:miter;stroke-miterlimit:4;stroke-dasharray:none;stroke-opacity:1"
         d="m 350.039,267.668 -11.25,3.75 c 7.16,-3.898 2.285,-5.449 0,-7.5 z" /></g><g
       transform="matrix(1,0,0,-1,0,536.27716)"
       id="g3870"><path
         inkscape:connector-curvature="0"
         id="path3872"
         style="fill:#ffffff;fill-opacity:1;fill-rule:nonzero;stroke:#ffffff;stroke-width:2.55118108;stroke-linecap:butt;stroke-linejoin:miter;stroke-miterlimit:4;stroke-dasharray:none;stroke-opacity:1"
         d="m 237.551,312.656 34.261,-34.261 1.965,-2.043 z" /></g><g
       transform="matrix(1,0,0,-1,0,536.27716)"
       id="g3874"><path
         inkscape:connector-curvature="0"
         id="path3876"
         style="fill:#ffffff;fill-opacity:1;fill-rule:nonzero;stroke:#ffffff;stroke-width:2.55118108;stroke-linecap:butt;stroke-linejoin:miter;stroke-miterlimit:4;stroke-dasharray:none;stroke-opacity:1"
         d="m 276.035,273.676 c 4.637,-4.637 4.777,-4.496 4.777,-4.496 z" /></g><g
       transform="matrix(1,0,0,-1,0,536.27716)"
       id="g3878"><path
         inkscape:connector-curvature="0"
         id="path3880"
         style="fill:#ffffff;fill-opacity:1;fill-rule:nonzero;stroke:#ffffff;stroke-width:2.83464599;stroke-linecap:butt;stroke-linejoin:miter;stroke-miterlimit:4;stroke-dasharray:none;stroke-opacity:1"
         d="m 280.305,263.84 v 6.262 l 6.058,-0.2 h -6.156 z" /></g><g
       transform="matrix(1,0,0,-1,0,536.27716)"
       id="g3882"><path
         inkscape:connector-curvature="0"
         id="path3884"
         style="fill:#ffffff;fill-opacity:1;fill-rule:evenodd;stroke:#ffffff;stroke-width:2.55118108;stroke-linecap:butt;stroke-linejoin:miter;stroke-miterlimit:4;stroke-dasharray:none;stroke-opacity:1"
         d="m 375.5,331.867 h 48.633 V 375.66 H 375.5 Z" /></g><g
       transform="matrix(1,0,0,-1,0,536.27716)"
       id="g3886"><path
         inkscape:connector-curvature="0"
         id="path3888"
         style="fill:#000000;fill-opacity:1;fill-rule:evenodd;stroke:#000000;stroke-width:2.83464599;stroke-linecap:butt;stroke-linejoin:miter;stroke-miterlimit:4;stroke-dasharray:none;stroke-opacity:1"
         d="m 402.426,367.82 -7.461,20.426 c 0.789,-12.781 0.496,-12.305 -12.008,-11.48 z" /></g><text
       xml:space="preserve"
       style="font-style:italic;font-variant:normal;font-weight:normal;font-stretch:normal;font-size:24px;line-height:1.25;font-family:'Century Schoolbook L';-inkscape-font-specification:'Century Schoolbook L Italic';font-variant-ligatures:normal;font-variant-caps:normal;font-variant-numeric:normal;font-feature-settings:normal;text-align:start;letter-spacing:0px;word-spacing:0px;writing-mode:lr-tb;text-anchor:start;fill:#666666;fill-opacity:1;stroke:#666666;stroke-width:0.75"
       x="295.71051"
       y="-336.06628"
       id="text336"
       transform="scale(1,-1)"><tspan
         sodipodi:role="line"
         id="tspan334"
         x="295.71051"
         y="-336.06628"
         style="font-style:italic;font-variant:normal;font-weight:normal;font-stretch:normal;font-size:24px;font-family:'Century Schoolbook L';-inkscape-font-specification:'Century Schoolbook L Italic';fill:#666666;stroke:#666666;stroke-width:0.75">y</tspan></text>
<text
       xml:space="preserve"
       style="font-style:italic;font-variant:normal;font-weight:normal;font-stretch:normal;font-size:24px;line-height:1.25;font-family:'Century Schoolbook L';-inkscape-font-specification:'Century Schoolbook L Italic';font-variant-ligatures:normal;font-variant-caps:normal;font-variant-numeric:normal;font-feature-settings:normal;text-align:start;letter-spacing:0px;word-spacing:0px;writing-mode:lr-tb;text-anchor:start;fill:#666666;fill-opacity:1;stroke:#666666;stroke-width:0.75"
       x="347.89471"
       y="-281.09894"
       id="text340"
       transform="scale(1,-1)"><tspan
         sodipodi:role="line"
         id="tspan338"
         x="347.89471"
         y="-281.09894"
         style="font-style:italic;font-variant:normal;font-weight:normal;font-stretch:normal;font-size:24px;font-family:'Century Schoolbook L';-inkscape-font-specification:'Century Schoolbook L Italic';fill:#666666;stroke:#666666;stroke-width:0.75">x</tspan></text>
</g></svg>